# xmcd
#
# Track frame offsets:
#	150
#	19407
#	36292
#	61500
#	81477
#	111645
#	131917
#	146775
#	166282
#	186065
#
# Disc length: 2761 seconds
#
# Revision: 1
# Processed by: cddbd v1.5.1PL0 Copyright (c) Steve Scherf et al.
# Submitted via: audiograbber 1.83.01
#
DISCID=930ac70a
DTITLE=J. W. Everitt - In The Moment
DYEAR=1992
DGENRE=Country
TTITLE0=Eulogy
TTITLE1=In the Moment
TTITLE2=Loose, Liquored and Laid
TTITLE3=Nothin Left But the Blues
TTITLE4=Just Thought You'd Like to Know
TTITLE5=Next Front Coming Through
TTITLE6=Leopard's Lament
TTITLE7=You Can't Outrun the Years
TTITLE8=Fault Line
TTITLE9=Ridin' Down the Canyon
EXTD=
EXTT0=
EXTT1=
EXTT2=
EXTT3=
EXTT4=
EXTT5=
EXTT6=
EXTT7=
EXTT8=
EXTT9=
PLAYORDER=
